<svg width="366" height="48" viewBox="0 0 366 48" fill="none" xmlns="http://www.w3.org/2000/svg">
<rect x="0.5" y="4" width="119" height="40" rx="8" fill="#2D3136"/>
<path fill-rule="evenodd" clip-rule="evenodd" d="M20.1464 17.6464C20.3417 17.4512 20.6583 17.4512 20.8536 17.6464L24.1869 20.9798C24.3821 21.175 24.3821 21.4916 24.1869 21.6869C23.9916 21.8821 23.675 21.8821 23.4798 21.6869L21 19.2071V26C21 26.2761 20.7761 26.5 20.5 26.5C20.2239 26.5 20 26.2761 20 26V19.2071L17.5202 21.6869C17.325 21.8821 17.0084 21.8821 16.8131 21.6869C16.6179 21.4916 16.6179 21.175 16.8131 20.9798L20.1464 17.6464ZM14.5 25.5C14.7761 25.5 15 25.7239 15 26V28.6667C15 28.8877 15.0878 29.0996 15.2441 29.2559C15.4004 29.4122 15.6123 29.5 15.8333 29.5H25.1667C25.3877 29.5 25.5996 29.4122 25.7559 29.2559C25.9122 29.0996 26 28.8877 26 28.6667V26C26 25.7239 26.2239 25.5 26.5 25.5C26.7761 25.5 27 25.7239 27 26V28.6667C27 29.1529 26.8068 29.6192 26.463 29.963C26.1192 30.3068 25.6529 30.5 25.1667 30.5H15.8333C15.3471 30.5 14.8808 30.3068 14.537 29.963C14.1932 29.6192 14 29.1529 14 28.6667V26C14 25.7239 14.2239 25.5 14.5 25.5Z" fill="#59B2FF"/>
<path d="M43.582 26.7793C43.582 27.3717 43.4362 27.8822 43.1445 28.3105C42.8574 28.7389 42.4427 29.0671 41.9004 29.2949C41.3626 29.5228 40.7201 29.6367 39.9727 29.6367C39.6081 29.6367 39.2594 29.6162 38.9268 29.5752C38.5941 29.5342 38.2796 29.4749 37.9834 29.3975C37.6917 29.3154 37.4251 29.2174 37.1836 29.1035V27.5586C37.5892 27.7363 38.0426 27.8981 38.5439 28.0439C39.0452 28.1852 39.5557 28.2559 40.0752 28.2559C40.499 28.2559 40.8499 28.2012 41.1279 28.0918C41.4105 27.9779 41.6201 27.8184 41.7568 27.6133C41.8936 27.4036 41.9619 27.1598 41.9619 26.8818C41.9619 26.5856 41.8822 26.335 41.7227 26.1299C41.5632 25.9248 41.3216 25.738 40.998 25.5693C40.679 25.3962 40.278 25.2116 39.7949 25.0156C39.4668 24.8835 39.1523 24.7331 38.8516 24.5645C38.5553 24.3958 38.291 24.1976 38.0586 23.9697C37.8262 23.7419 37.6416 23.473 37.5049 23.1631C37.3727 22.8486 37.3066 22.4795 37.3066 22.0557C37.3066 21.4906 37.4411 21.0075 37.71 20.6064C37.9834 20.2054 38.3662 19.8978 38.8584 19.6836C39.3551 19.4694 39.9339 19.3623 40.5947 19.3623C41.1188 19.3623 41.611 19.417 42.0713 19.5264C42.5361 19.6357 42.9919 19.7907 43.4385 19.9912L42.9189 21.3105C42.5088 21.1419 42.11 21.0075 41.7227 20.9072C41.3398 20.807 40.9479 20.7568 40.5469 20.7568C40.2005 20.7568 39.9066 20.8092 39.665 20.9141C39.4235 21.0189 39.2389 21.167 39.1113 21.3584C38.9883 21.5452 38.9268 21.7686 38.9268 22.0283C38.9268 22.32 38.9974 22.5661 39.1387 22.7666C39.2845 22.9626 39.5078 23.1426 39.8086 23.3066C40.1139 23.4707 40.5059 23.653 40.9844 23.8535C41.5358 24.0814 42.0029 24.3206 42.3857 24.5713C42.7731 24.8219 43.0693 25.1227 43.2744 25.4736C43.4795 25.82 43.582 26.2552 43.582 26.7793ZM48.3604 21.7891C49.0348 21.7891 49.6136 21.9281 50.0967 22.2061C50.5798 22.484 50.9512 22.8783 51.2109 23.3887C51.4707 23.8991 51.6006 24.5098 51.6006 25.2207V26.082H46.5488C46.5671 26.8158 46.763 27.3809 47.1367 27.7773C47.515 28.1738 48.0436 28.3721 48.7227 28.3721C49.2057 28.3721 49.6387 28.3265 50.0215 28.2354C50.4089 28.1396 50.8076 28.0007 51.2178 27.8184V29.124C50.8395 29.3018 50.4544 29.4316 50.0625 29.5137C49.6706 29.5957 49.2012 29.6367 48.6543 29.6367C47.9115 29.6367 47.2575 29.4932 46.6924 29.2061C46.1318 28.9144 45.6921 28.4814 45.373 27.9072C45.0586 27.333 44.9014 26.6198 44.9014 25.7676C44.9014 24.9199 45.0449 24.1999 45.332 23.6074C45.6191 23.015 46.0225 22.5638 46.542 22.2539C47.0615 21.944 47.6676 21.7891 48.3604 21.7891ZM48.3604 22.999C47.8545 22.999 47.4443 23.1631 47.1299 23.4912C46.82 23.8193 46.6377 24.3001 46.583 24.9336H50.0283C50.0238 24.5553 49.96 24.2204 49.8369 23.9287C49.7184 23.637 49.5361 23.4092 49.29 23.2451C49.0485 23.0811 48.7386 22.999 48.3604 22.999ZM55.0254 29.5H53.4121V18.8633H55.0254V29.5ZM60.3369 21.7891C61.0114 21.7891 61.5902 21.9281 62.0732 22.2061C62.5563 22.484 62.9277 22.8783 63.1875 23.3887C63.4473 23.8991 63.5771 24.5098 63.5771 25.2207V26.082H58.5254C58.5436 26.8158 58.7396 27.3809 59.1133 27.7773C59.4915 28.1738 60.0202 28.3721 60.6992 28.3721C61.1823 28.3721 61.6152 28.3265 61.998 28.2354C62.3854 28.1396 62.7842 28.0007 63.1943 27.8184V29.124C62.8161 29.3018 62.431 29.4316 62.0391 29.5137C61.6471 29.5957 61.1777 29.6367 60.6309 29.6367C59.888 29.6367 59.234 29.4932 58.6689 29.2061C58.1084 28.9144 57.6686 28.4814 57.3496 27.9072C57.0352 27.333 56.8779 26.6198 56.8779 25.7676C56.8779 24.9199 57.0215 24.1999 57.3086 23.6074C57.5957 23.015 57.999 22.5638 58.5186 22.2539C59.0381 21.944 59.6442 21.7891 60.3369 21.7891ZM60.3369 22.999C59.8311 22.999 59.4209 23.1631 59.1064 23.4912C58.7965 23.8193 58.6143 24.3001 58.5596 24.9336H62.0049C62.0003 24.5553 61.9365 24.2204 61.8135 23.9287C61.695 23.637 61.5127 23.4092 61.2666 23.2451C61.0251 23.0811 60.7152 22.999 60.3369 22.999ZM68.4375 29.6367C67.722 29.6367 67.1022 29.4977 66.5781 29.2197C66.054 28.9417 65.6507 28.5156 65.3682 27.9414C65.0856 27.3672 64.9443 26.638 64.9443 25.7539C64.9443 24.8333 65.0993 24.0814 65.4092 23.498C65.7191 22.9147 66.1475 22.484 66.6943 22.2061C67.2458 21.9281 67.877 21.7891 68.5879 21.7891C69.0391 21.7891 69.4469 21.8346 69.8115 21.9258C70.1807 22.0124 70.4928 22.1195 70.748 22.2471L70.2695 23.5322C69.9915 23.4183 69.7067 23.3226 69.415 23.2451C69.1234 23.1676 68.8431 23.1289 68.5742 23.1289C68.1322 23.1289 67.763 23.2269 67.4668 23.4229C67.1751 23.6188 66.9564 23.9105 66.8105 24.2979C66.6693 24.6852 66.5986 25.166 66.5986 25.7402C66.5986 26.2962 66.6715 26.7656 66.8174 27.1484C66.9632 27.5267 67.1797 27.8138 67.4668 28.0098C67.7539 28.2012 68.1071 28.2969 68.5264 28.2969C68.9411 28.2969 69.3125 28.2467 69.6406 28.1465C69.9688 28.0462 70.2786 27.9163 70.5703 27.7568V29.1514C70.2832 29.3154 69.9756 29.4362 69.6475 29.5137C69.3193 29.5957 68.916 29.6367 68.4375 29.6367ZM73.9541 21.9326V29.5H72.3477V21.9326H73.9541ZM73.1611 19.0342C73.4072 19.0342 73.6191 19.1003 73.7969 19.2324C73.9792 19.3646 74.0703 19.5924 74.0703 19.916C74.0703 20.235 73.9792 20.4629 73.7969 20.5996C73.6191 20.7318 73.4072 20.7979 73.1611 20.7979C72.9059 20.7979 72.6895 20.7318 72.5117 20.5996C72.3385 20.4629 72.252 20.235 72.252 19.916C72.252 19.5924 72.3385 19.3646 72.5117 19.2324C72.6895 19.1003 72.9059 19.0342 73.1611 19.0342ZM82.957 25.6992C82.957 26.3281 82.875 26.8864 82.7109 27.374C82.5469 27.8617 82.3076 28.2741 81.9932 28.6113C81.6787 28.944 81.3005 29.1992 80.8584 29.377C80.4163 29.5501 79.9173 29.6367 79.3613 29.6367C78.8418 29.6367 78.3656 29.5501 77.9326 29.377C77.4997 29.1992 77.1237 28.944 76.8047 28.6113C76.4902 28.2741 76.2464 27.8617 76.0732 27.374C75.9001 26.8864 75.8135 26.3281 75.8135 25.6992C75.8135 24.8652 75.957 24.1589 76.2441 23.5801C76.5358 22.9967 76.9505 22.5524 77.4883 22.2471C78.026 21.9417 78.6663 21.7891 79.4092 21.7891C80.1064 21.7891 80.7217 21.9417 81.2549 22.2471C81.7881 22.5524 82.2051 22.9967 82.5059 23.5801C82.8066 24.1634 82.957 24.8698 82.957 25.6992ZM77.4678 25.6992C77.4678 26.2507 77.5339 26.7223 77.666 27.1143C77.8027 27.5062 78.0124 27.807 78.2949 28.0166C78.5775 28.2217 78.9421 28.3242 79.3887 28.3242C79.8353 28.3242 80.1999 28.2217 80.4824 28.0166C80.765 27.807 80.9723 27.5062 81.1045 27.1143C81.2367 26.7223 81.3027 26.2507 81.3027 25.6992C81.3027 25.1478 81.2367 24.6807 81.1045 24.2979C80.9723 23.9105 80.765 23.6165 80.4824 23.416C80.1999 23.2109 79.833 23.1084 79.3818 23.1084C78.7165 23.1084 78.2311 23.3317 77.9258 23.7783C77.6204 24.2249 77.4678 24.8652 77.4678 25.6992ZM88.7471 21.7891C89.5993 21.7891 90.2624 22.0101 90.7363 22.4521C91.2148 22.8896 91.4541 23.5938 91.4541 24.5645V29.5H89.8477V24.8652C89.8477 24.2773 89.7269 23.8376 89.4854 23.5459C89.2438 23.2497 88.8701 23.1016 88.3643 23.1016C87.6305 23.1016 87.1201 23.3271 86.833 23.7783C86.5505 24.2295 86.4092 24.8835 86.4092 25.7402V29.5H84.8027V21.9326H86.0537L86.2793 22.958H86.3682C86.5322 22.6937 86.735 22.4772 86.9766 22.3086C87.2227 22.1354 87.4961 22.0055 87.7969 21.9189C88.1022 21.8324 88.4189 21.7891 88.7471 21.7891ZM96.6699 21.7891C97.627 21.7891 98.3493 22.001 98.8369 22.4248C99.3291 22.8486 99.5752 23.5094 99.5752 24.4072V29.5H98.4336L98.126 28.4268H98.0713C97.8571 28.7002 97.6361 28.9258 97.4082 29.1035C97.1803 29.2812 96.916 29.4134 96.6152 29.5C96.319 29.5911 95.9567 29.6367 95.5283 29.6367C95.0771 29.6367 94.6738 29.5547 94.3184 29.3906C93.9629 29.222 93.6826 28.9668 93.4775 28.625C93.2725 28.2832 93.1699 27.8503 93.1699 27.3262C93.1699 26.5469 93.4593 25.9613 94.0381 25.5693C94.6214 25.1774 95.501 24.9609 96.6768 24.9199L97.9893 24.8721V24.4756C97.9893 23.9515 97.8662 23.5778 97.6201 23.3545C97.3786 23.1312 97.0368 23.0195 96.5947 23.0195C96.2165 23.0195 95.8496 23.0742 95.4941 23.1836C95.1387 23.293 94.7923 23.4274 94.4551 23.5869L93.9355 22.4521C94.3047 22.2562 94.724 22.0967 95.1934 21.9736C95.6673 21.8506 96.1595 21.7891 96.6699 21.7891ZM97.9824 25.8838L97.0049 25.918C96.2028 25.9453 95.64 26.082 95.3164 26.3281C94.9928 26.5742 94.8311 26.9115 94.8311 27.3398C94.8311 27.7135 94.9427 27.987 95.166 28.1602C95.3893 28.3288 95.6833 28.4131 96.0479 28.4131C96.6038 28.4131 97.0641 28.2559 97.4287 27.9414C97.7979 27.6224 97.9824 27.1553 97.9824 26.54V25.8838ZM105.659 21.7891C105.787 21.7891 105.926 21.7959 106.076 21.8096C106.227 21.8232 106.356 21.8415 106.466 21.8643L106.315 23.3682C106.22 23.3408 106.101 23.3203 105.96 23.3066C105.823 23.293 105.7 23.2861 105.591 23.2861C105.304 23.2861 105.03 23.334 104.771 23.4297C104.511 23.5208 104.281 23.6621 104.08 23.8535C103.88 24.0404 103.722 24.2751 103.608 24.5576C103.494 24.8402 103.438 25.1683 103.438 25.542V29.5H101.824V21.9326H103.082L103.301 23.2656H103.376C103.526 22.9967 103.713 22.7507 103.937 22.5273C104.16 22.304 104.415 22.1263 104.702 21.9941C104.994 21.8574 105.313 21.7891 105.659 21.7891Z" fill="#F9F9F9"/>
<path d="M134.164 21.4375V30H132.867V21.4375H134.164ZM133.531 18.2344C133.745 18.2344 133.927 18.3047 134.078 18.4453C134.234 18.5807 134.312 18.7943 134.312 19.0859C134.312 19.3724 134.234 19.5859 134.078 19.7266C133.927 19.8672 133.745 19.9375 133.531 19.9375C133.307 19.9375 133.12 19.8672 132.969 19.7266C132.823 19.5859 132.75 19.3724 132.75 19.0859C132.75 18.7943 132.823 18.5807 132.969 18.4453C133.12 18.3047 133.307 18.2344 133.531 18.2344ZM146.211 21.2812C147.154 21.2812 147.865 21.5286 148.344 22.0234C148.823 22.513 149.062 23.3021 149.062 24.3906V30H147.781V24.4531C147.781 23.7604 147.63 23.2422 147.328 22.8984C147.031 22.5495 146.589 22.375 146 22.375C145.172 22.375 144.57 22.6146 144.195 23.0938C143.82 23.5729 143.633 24.2786 143.633 25.2109V30H142.344V24.4531C142.344 23.9896 142.276 23.6042 142.141 23.2969C142.01 22.9896 141.812 22.7604 141.547 22.6094C141.286 22.4531 140.956 22.375 140.555 22.375C139.987 22.375 139.531 22.4922 139.188 22.7266C138.844 22.9609 138.594 23.3099 138.438 23.7734C138.286 24.2318 138.211 24.7969 138.211 25.4688V30H136.914V21.4375H137.961L138.156 22.6484H138.227C138.398 22.3516 138.615 22.1016 138.875 21.8984C139.135 21.6953 139.427 21.5417 139.75 21.4375C140.073 21.3333 140.417 21.2812 140.781 21.2812C141.432 21.2812 141.977 21.4036 142.414 21.6484C142.857 21.888 143.177 22.2552 143.375 22.75H143.445C143.727 22.2552 144.112 21.888 144.602 21.6484C145.091 21.4036 145.628 21.2812 146.211 21.2812ZM154.93 21.2969C155.951 21.2969 156.708 21.526 157.203 21.9844C157.698 22.4427 157.945 23.1745 157.945 24.1797V30H157L156.75 28.7344H156.688C156.448 29.0469 156.198 29.3099 155.938 29.5234C155.677 29.7318 155.375 29.8906 155.031 30C154.693 30.1042 154.276 30.1562 153.781 30.1562C153.26 30.1562 152.797 30.0651 152.391 29.8828C151.99 29.7005 151.672 29.4245 151.438 29.0547C151.208 28.6849 151.094 28.2161 151.094 27.6484C151.094 26.7943 151.432 26.138 152.109 25.6797C152.786 25.2214 153.818 24.9714 155.203 24.9297L156.68 24.8672V24.3438C156.68 23.6042 156.521 23.0859 156.203 22.7891C155.885 22.4922 155.438 22.3438 154.859 22.3438C154.411 22.3438 153.984 22.4089 153.578 22.5391C153.172 22.6693 152.786 22.8229 152.422 23L152.023 22.0156C152.409 21.8177 152.852 21.6484 153.352 21.5078C153.852 21.3672 154.378 21.2969 154.93 21.2969ZM156.664 25.7812L155.359 25.8359C154.292 25.8776 153.539 26.0521 153.102 26.3594C152.664 26.6667 152.445 27.1016 152.445 27.6641C152.445 28.1536 152.594 28.5156 152.891 28.75C153.188 28.9844 153.581 29.1016 154.07 29.1016C154.831 29.1016 155.453 28.8906 155.938 28.4688C156.422 28.0469 156.664 27.4141 156.664 26.5703V25.7812ZM163.008 33.8438C161.883 33.8438 161.016 33.6328 160.406 33.2109C159.797 32.7943 159.492 32.2083 159.492 31.4531C159.492 30.9167 159.661 30.4583 160 30.0781C160.344 29.6979 160.818 29.4453 161.422 29.3203C161.198 29.2161 161.005 29.0599 160.844 28.8516C160.688 28.6432 160.609 28.4036 160.609 28.1328C160.609 27.8203 160.695 27.5469 160.867 27.3125C161.044 27.0729 161.312 26.8438 161.672 26.625C161.224 26.4427 160.859 26.1354 160.578 25.7031C160.302 25.2656 160.164 24.7578 160.164 24.1797C160.164 23.5651 160.292 23.0417 160.547 22.6094C160.802 22.1719 161.172 21.8385 161.656 21.6094C162.141 21.3802 162.727 21.2656 163.414 21.2656C163.565 21.2656 163.716 21.2734 163.867 21.2891C164.023 21.2995 164.172 21.3177 164.312 21.3438C164.453 21.3646 164.576 21.3906 164.68 21.4219H167.617V22.2578L166.039 22.4531C166.195 22.6562 166.326 22.901 166.43 23.1875C166.534 23.474 166.586 23.7917 166.586 24.1406C166.586 24.9948 166.297 25.6745 165.719 26.1797C165.141 26.6797 164.346 26.9297 163.336 26.9297C163.096 26.9297 162.852 26.9089 162.602 26.8672C162.346 27.0078 162.151 27.1641 162.016 27.3359C161.885 27.5078 161.82 27.7057 161.82 27.9297C161.82 28.0964 161.87 28.2292 161.969 28.3281C162.073 28.4271 162.221 28.5 162.414 28.5469C162.607 28.5885 162.839 28.6094 163.109 28.6094H164.617C165.549 28.6094 166.263 28.8047 166.758 29.1953C167.258 29.5859 167.508 30.1562 167.508 30.9062C167.508 31.8542 167.122 32.5807 166.352 33.0859C165.581 33.5911 164.466 33.8438 163.008 33.8438ZM163.047 32.8281C163.755 32.8281 164.341 32.7552 164.805 32.6094C165.273 32.4688 165.622 32.263 165.852 31.9922C166.086 31.7266 166.203 31.4089 166.203 31.0391C166.203 30.6953 166.125 30.4349 165.969 30.2578C165.812 30.0859 165.583 29.9714 165.281 29.9141C164.979 29.8516 164.609 29.8203 164.172 29.8203H162.688C162.302 29.8203 161.966 29.8802 161.68 30C161.393 30.1198 161.172 30.2969 161.016 30.5312C160.865 30.7656 160.789 31.0573 160.789 31.4062C160.789 31.8698 160.984 32.2214 161.375 32.4609C161.766 32.7057 162.323 32.8281 163.047 32.8281ZM163.383 25.9844C164.003 25.9844 164.469 25.8281 164.781 25.5156C165.094 25.2031 165.25 24.7474 165.25 24.1484C165.25 23.5078 165.091 23.0286 164.773 22.7109C164.456 22.388 163.987 22.2266 163.367 22.2266C162.773 22.2266 162.315 22.3932 161.992 22.7266C161.674 23.0547 161.516 23.5365 161.516 24.1719C161.516 24.7552 161.677 25.2031 162 25.5156C162.323 25.8281 162.784 25.9844 163.383 25.9844ZM172.602 21.2812C173.331 21.2812 173.956 21.4427 174.477 21.7656C174.997 22.0885 175.396 22.5417 175.672 23.125C175.948 23.7031 176.086 24.3802 176.086 25.1562V25.9609H170.172C170.188 26.9661 170.438 27.7318 170.922 28.2578C171.406 28.7839 172.089 29.0469 172.969 29.0469C173.51 29.0469 173.99 28.9974 174.406 28.8984C174.823 28.7995 175.255 28.6536 175.703 28.4609V29.6016C175.271 29.7943 174.841 29.9349 174.414 30.0234C173.992 30.112 173.492 30.1562 172.914 30.1562C172.091 30.1562 171.372 29.9896 170.758 29.6562C170.148 29.3177 169.674 28.8229 169.336 28.1719C168.997 27.5208 168.828 26.724 168.828 25.7812C168.828 24.8594 168.982 24.0625 169.289 23.3906C169.602 22.7135 170.039 22.1927 170.602 21.8281C171.169 21.4635 171.836 21.2812 172.602 21.2812ZM172.586 22.3438C171.893 22.3438 171.341 22.5703 170.93 23.0234C170.518 23.4766 170.273 24.1094 170.195 24.9219H174.727C174.721 24.4115 174.641 23.9635 174.484 23.5781C174.333 23.1875 174.102 22.8854 173.789 22.6719C173.477 22.4531 173.076 22.3438 172.586 22.3438ZM178.094 29.1875C178.094 28.8229 178.182 28.5651 178.359 28.4141C178.536 28.2578 178.753 28.1797 179.008 28.1797C179.273 28.1797 179.497 28.2578 179.68 28.4141C179.862 28.5651 179.953 28.8229 179.953 29.1875C179.953 29.5469 179.862 29.8099 179.68 29.9766C179.497 30.138 179.273 30.2188 179.008 30.2188C178.753 30.2188 178.536 30.138 178.359 29.9766C178.182 29.8099 178.094 29.5469 178.094 29.1875ZM186.516 21.2812C187.583 21.2812 188.435 21.6484 189.07 22.3828C189.706 23.1172 190.023 24.2214 190.023 25.6953C190.023 26.6693 189.878 27.487 189.586 28.1484C189.294 28.8099 188.883 29.3099 188.352 29.6484C187.826 29.987 187.203 30.1562 186.484 30.1562C186.031 30.1562 185.633 30.0964 185.289 29.9766C184.945 29.8568 184.651 29.6953 184.406 29.4922C184.161 29.2891 183.958 29.0677 183.797 28.8281H183.703C183.719 29.0312 183.737 29.276 183.758 29.5625C183.784 29.849 183.797 30.099 183.797 30.3125V33.8281H182.492V21.4375H183.562L183.734 22.7031H183.797C183.964 22.4427 184.167 22.2057 184.406 21.9922C184.646 21.7734 184.938 21.6016 185.281 21.4766C185.63 21.3464 186.042 21.2812 186.516 21.2812ZM186.289 22.375C185.695 22.375 185.216 22.4896 184.852 22.7188C184.492 22.9479 184.229 23.2917 184.062 23.75C183.896 24.2031 183.807 24.7734 183.797 25.4609V25.7109C183.797 26.4349 183.875 27.0469 184.031 27.5469C184.193 28.0469 184.456 28.4271 184.82 28.6875C185.19 28.9479 185.685 29.0781 186.305 29.0781C186.836 29.0781 187.279 28.9349 187.633 28.6484C187.987 28.362 188.25 27.9635 188.422 27.4531C188.599 26.9375 188.688 26.3464 188.688 25.6797C188.688 24.6693 188.49 23.8672 188.094 23.2734C187.703 22.6745 187.102 22.375 186.289 22.375ZM196.344 21.2812C197.359 21.2812 198.128 21.5312 198.648 22.0312C199.169 22.526 199.43 23.3229 199.43 24.4219V30H198.148V24.5078C198.148 23.7943 197.984 23.2604 197.656 22.9062C197.333 22.5521 196.836 22.375 196.164 22.375C195.216 22.375 194.549 22.6432 194.164 23.1797C193.779 23.7161 193.586 24.4948 193.586 25.5156V30H192.289V21.4375H193.336L193.531 22.6719H193.602C193.784 22.3698 194.016 22.1172 194.297 21.9141C194.578 21.7057 194.893 21.5495 195.242 21.4453C195.591 21.3359 195.958 21.2812 196.344 21.2812ZM204.492 33.8438C203.367 33.8438 202.5 33.6328 201.891 33.2109C201.281 32.7943 200.977 32.2083 200.977 31.4531C200.977 30.9167 201.146 30.4583 201.484 30.0781C201.828 29.6979 202.302 29.4453 202.906 29.3203C202.682 29.2161 202.49 29.0599 202.328 28.8516C202.172 28.6432 202.094 28.4036 202.094 28.1328C202.094 27.8203 202.18 27.5469 202.352 27.3125C202.529 27.0729 202.797 26.8438 203.156 26.625C202.708 26.4427 202.344 26.1354 202.062 25.7031C201.786 25.2656 201.648 24.7578 201.648 24.1797C201.648 23.5651 201.776 23.0417 202.031 22.6094C202.286 22.1719 202.656 21.8385 203.141 21.6094C203.625 21.3802 204.211 21.2656 204.898 21.2656C205.049 21.2656 205.201 21.2734 205.352 21.2891C205.508 21.2995 205.656 21.3177 205.797 21.3438C205.938 21.3646 206.06 21.3906 206.164 21.4219H209.102V22.2578L207.523 22.4531C207.68 22.6562 207.81 22.901 207.914 23.1875C208.018 23.474 208.07 23.7917 208.07 24.1406C208.07 24.9948 207.781 25.6745 207.203 26.1797C206.625 26.6797 205.831 26.9297 204.82 26.9297C204.581 26.9297 204.336 26.9089 204.086 26.8672C203.831 27.0078 203.635 27.1641 203.5 27.3359C203.37 27.5078 203.305 27.7057 203.305 27.9297C203.305 28.0964 203.354 28.2292 203.453 28.3281C203.557 28.4271 203.706 28.5 203.898 28.5469C204.091 28.5885 204.323 28.6094 204.594 28.6094H206.102C207.034 28.6094 207.747 28.8047 208.242 29.1953C208.742 29.5859 208.992 30.1562 208.992 30.9062C208.992 31.8542 208.607 32.5807 207.836 33.0859C207.065 33.5911 205.951 33.8438 204.492 33.8438ZM204.531 32.8281C205.24 32.8281 205.826 32.7552 206.289 32.6094C206.758 32.4688 207.107 32.263 207.336 31.9922C207.57 31.7266 207.688 31.4089 207.688 31.0391C207.688 30.6953 207.609 30.4349 207.453 30.2578C207.297 30.0859 207.068 29.9714 206.766 29.9141C206.464 29.8516 206.094 29.8203 205.656 29.8203H204.172C203.786 29.8203 203.451 29.8802 203.164 30C202.878 30.1198 202.656 30.2969 202.5 30.5312C202.349 30.7656 202.273 31.0573 202.273 31.4062C202.273 31.8698 202.469 32.2214 202.859 32.4609C203.25 32.7057 203.807 32.8281 204.531 32.8281ZM204.867 25.9844C205.487 25.9844 205.953 25.8281 206.266 25.5156C206.578 25.2031 206.734 24.7474 206.734 24.1484C206.734 23.5078 206.576 23.0286 206.258 22.7109C205.94 22.388 205.471 22.2266 204.852 22.2266C204.258 22.2266 203.799 22.3932 203.477 22.7266C203.159 23.0547 203 23.5365 203 24.1719C203 24.7552 203.161 25.2031 203.484 25.5156C203.807 25.8281 204.268 25.9844 204.867 25.9844Z" fill="#C8CDD0"/>
</svg>
