<svg width="134" height="103" viewBox="0 0 134 103" fill="none" xmlns="http://www.w3.org/2000/svg">
<rect x="0.5" y="0.5" width="133" height="102" rx="7.5" fill="#2D3136"/>
<rect x="0.5" y="0.5" width="133" height="102" rx="7.5" stroke="#363B40"/>
<rect x="4" y="4" width="126" height="64" rx="4" fill="#869198"/>
<path d="M50.833 91V81.0059H51.9951V89.9609H56.4316V91H50.833ZM60.7793 83.3848C61.6725 83.3848 62.3356 83.5853 62.7686 83.9863C63.2015 84.3874 63.418 85.0277 63.418 85.9072V91H62.5908L62.3721 89.8926H62.3174C62.1077 90.166 61.889 90.3962 61.6611 90.583C61.4333 90.7653 61.1689 90.9043 60.8682 91C60.5719 91.0911 60.2074 91.1367 59.7744 91.1367C59.3187 91.1367 58.9131 91.057 58.5576 90.8975C58.2067 90.738 57.9287 90.4964 57.7236 90.1729C57.5231 89.8493 57.4229 89.4391 57.4229 88.9424C57.4229 88.195 57.7191 87.6208 58.3115 87.2197C58.904 86.8187 59.8063 86.5999 61.0186 86.5635L62.3105 86.5088V86.0508C62.3105 85.4036 62.1715 84.9502 61.8936 84.6904C61.6156 84.4307 61.2236 84.3008 60.7178 84.3008C60.3258 84.3008 59.9521 84.3577 59.5967 84.4717C59.2412 84.5856 58.904 84.7201 58.585 84.875L58.2363 84.0137C58.5736 83.8405 58.9609 83.6924 59.3984 83.5693C59.8359 83.4463 60.2962 83.3848 60.7793 83.3848ZM62.2969 87.3086L61.1553 87.3564C60.221 87.3929 59.5625 87.5456 59.1797 87.8145C58.7969 88.0833 58.6055 88.4639 58.6055 88.9561C58.6055 89.3844 58.7354 89.7012 58.9951 89.9062C59.2549 90.1113 59.599 90.2139 60.0273 90.2139C60.6927 90.2139 61.2373 90.0293 61.6611 89.6602C62.085 89.291 62.2969 88.7373 62.2969 87.999V87.3086ZM66.8906 80.3633V83.0225C66.8906 83.3278 66.8815 83.624 66.8633 83.9111C66.8496 84.1982 66.8382 84.4215 66.8291 84.5811H66.8906C67.0957 84.2438 67.3919 83.959 67.7793 83.7266C68.1667 83.4941 68.6611 83.3779 69.2627 83.3779C70.2015 83.3779 70.9489 83.7038 71.5049 84.3555C72.0654 85.0026 72.3457 85.9665 72.3457 87.2471C72.3457 88.0902 72.2181 88.8011 71.9629 89.3799C71.7077 89.9587 71.3477 90.3962 70.8828 90.6924C70.418 90.9886 69.8688 91.1367 69.2354 91.1367C68.6429 91.1367 68.1553 91.0273 67.7725 90.8086C67.3942 90.5853 67.1025 90.3141 66.8975 89.9951H66.8086L66.5762 91H65.7559V80.3633H66.8906ZM69.0781 84.3281C68.5358 84.3281 68.1051 84.4352 67.7861 84.6494C67.4671 84.859 67.237 85.1781 67.0957 85.6064C66.959 86.0303 66.8906 86.568 66.8906 87.2197V87.2812C66.8906 88.2246 67.0479 88.9469 67.3623 89.4482C67.6768 89.945 68.2487 90.1934 69.0781 90.1934C69.7754 90.1934 70.2972 89.9382 70.6436 89.4277C70.9945 88.9173 71.1699 88.1882 71.1699 87.2402C71.1699 86.2741 70.9967 85.5472 70.6504 85.0596C70.3086 84.5719 69.7845 84.3281 69.0781 84.3281ZM77.2129 83.3711C77.8509 83.3711 78.3978 83.5124 78.8535 83.7949C79.3092 84.0775 79.6579 84.474 79.8994 84.9844C80.141 85.4902 80.2617 86.0827 80.2617 86.7617V87.4658H75.0869C75.1006 88.3454 75.3193 89.0153 75.7432 89.4756C76.167 89.9359 76.764 90.166 77.5342 90.166C78.0081 90.166 78.4274 90.1227 78.792 90.0361C79.1566 89.9495 79.5348 89.8219 79.9268 89.6533V90.6514C79.5485 90.82 79.1725 90.943 78.7988 91.0205C78.4297 91.098 77.9922 91.1367 77.4863 91.1367C76.7663 91.1367 76.1374 90.9909 75.5996 90.6992C75.0664 90.403 74.6517 89.9701 74.3555 89.4004C74.0592 88.8307 73.9111 88.1335 73.9111 87.3086C73.9111 86.502 74.0456 85.8047 74.3145 85.2168C74.5879 84.6243 74.9707 84.1686 75.4629 83.8496C75.9596 83.5306 76.543 83.3711 77.2129 83.3711ZM77.1992 84.3008C76.5931 84.3008 76.11 84.499 75.75 84.8955C75.39 85.292 75.1758 85.8457 75.1074 86.5566H79.0723C79.0677 86.11 78.9971 85.7181 78.8604 85.3809C78.7282 85.0391 78.5254 84.7747 78.252 84.5879C77.9785 84.3965 77.6276 84.3008 77.1992 84.3008ZM83.3311 91H82.1895V80.3633H83.3311V91Z" fill="#F9F9F9"/>
</svg>
