<svg width="366" height="48" viewBox="0 0 366 48" fill="none" xmlns="http://www.w3.org/2000/svg">
<rect x="1" y="0.5" width="364" height="47" rx="7.5" fill="#1C1F21"/>
<rect x="1" y="0.5" width="364" height="47" rx="7.5" stroke="#59B2FF"/>
<path d="M21.5703 30H20.2344V19.75H16.6406V18.5781H25.1484V19.75H21.5703V30ZM29.9766 21.2812C30.7057 21.2812 31.3307 21.4427 31.8516 21.7656C32.3724 22.0885 32.7708 22.5417 33.0469 23.125C33.3229 23.7031 33.4609 24.3802 33.4609 25.1562V25.9609H27.5469C27.5625 26.9661 27.8125 27.7318 28.2969 28.2578C28.7812 28.7839 29.4635 29.0469 30.3438 29.0469C30.8854 29.0469 31.3646 28.9974 31.7812 28.8984C32.1979 28.7995 32.6302 28.6536 33.0781 28.4609V29.6016C32.6458 29.7943 32.2161 29.9349 31.7891 30.0234C31.3672 30.112 30.8672 30.1562 30.2891 30.1562C29.4661 30.1562 28.7474 29.9896 28.1328 29.6562C27.5234 29.3177 27.0495 28.8229 26.7109 28.1719C26.3724 27.5208 26.2031 26.724 26.2031 25.7812C26.2031 24.8594 26.3568 24.0625 26.6641 23.3906C26.9766 22.7135 27.4141 22.1927 27.9766 21.8281C28.5443 21.4635 29.2109 21.2812 29.9766 21.2812ZM29.9609 22.3438C29.2682 22.3438 28.7161 22.5703 28.3047 23.0234C27.8932 23.4766 27.6484 24.1094 27.5703 24.9219H32.1016C32.0964 24.4115 32.0156 23.9635 31.8594 23.5781C31.7083 23.1875 31.4766 22.8854 31.1641 22.6719C30.8516 22.4531 30.4505 22.3438 29.9609 22.3438ZM37.7031 25.6172L34.7422 21.4375H36.2266L38.4844 24.7344L40.7344 21.4375H42.2031L39.2422 25.6172L42.3672 30H40.8828L38.4844 26.5078L36.0703 30H34.6016L37.7031 25.6172ZM46.8047 29.0938C47.0182 29.0938 47.237 29.0755 47.4609 29.0391C47.6849 29.0026 47.8672 28.9583 48.0078 28.9062V29.9141C47.8568 29.9818 47.6458 30.0391 47.375 30.0859C47.1094 30.1328 46.849 30.1562 46.5938 30.1562C46.1406 30.1562 45.7292 30.0781 45.3594 29.9219C44.9896 29.7604 44.6927 29.4896 44.4688 29.1094C44.25 28.7292 44.1406 28.2031 44.1406 27.5312V22.4531H42.9219V21.8203L44.1484 21.3125L44.6641 19.4531H45.4453V21.4375H47.9531V22.4531H45.4453V27.4922C45.4453 28.0286 45.5677 28.4297 45.8125 28.6953C46.0625 28.9609 46.3932 29.0938 46.8047 29.0938Z" fill="#F9F9F9"/>
</svg>
