<svg width="366" height="48" viewBox="0 0 366 48" fill="none" xmlns="http://www.w3.org/2000/svg">
<rect x="1" y="0.5" width="364" height="47" rx="7.5" fill="#1C1F21"/>
<rect x="1" y="0.5" width="364" height="47" rx="7.5" stroke="#363B40"/>
<path d="M21.0469 18.5781C22.5208 18.5781 23.5964 18.8672 24.2734 19.4453C24.9557 20.0182 25.2969 20.8411 25.2969 21.9141C25.2969 22.3984 25.2161 22.8594 25.0547 23.2969C24.8984 23.7292 24.6432 24.112 24.2891 24.4453C23.9349 24.7734 23.4688 25.0339 22.8906 25.2266C22.3177 25.4141 21.6146 25.5078 20.7812 25.5078H19.3906V30H18.0625V18.5781H21.0469ZM20.9219 19.7109H19.3906V24.3672H20.6328C21.362 24.3672 21.9688 24.2891 22.4531 24.1328C22.9427 23.9766 23.3099 23.724 23.5547 23.375C23.7995 23.0208 23.9219 22.5521 23.9219 21.9688C23.9219 21.2083 23.6797 20.6432 23.1953 20.2734C22.7109 19.8984 21.9531 19.7109 20.9219 19.7109ZM28.7969 30H27.4922V17.8438H28.7969V30ZM34.7422 21.2969C35.763 21.2969 36.5208 21.526 37.0156 21.9844C37.5104 22.4427 37.7578 23.1745 37.7578 24.1797V30H36.8125L36.5625 28.7344H36.5C36.2604 29.0469 36.0104 29.3099 35.75 29.5234C35.4896 29.7318 35.1875 29.8906 34.8438 30C34.5052 30.1042 34.0885 30.1562 33.5938 30.1562C33.0729 30.1562 32.6094 30.0651 32.2031 29.8828C31.8021 29.7005 31.4844 29.4245 31.25 29.0547C31.0208 28.6849 30.9062 28.2161 30.9062 27.6484C30.9062 26.7943 31.2448 26.138 31.9219 25.6797C32.599 25.2214 33.6302 24.9714 35.0156 24.9297L36.4922 24.8672V24.3438C36.4922 23.6042 36.3333 23.0859 36.0156 22.7891C35.6979 22.4922 35.25 22.3438 34.6719 22.3438C34.224 22.3438 33.7969 22.4089 33.3906 22.5391C32.9844 22.6693 32.599 22.8229 32.2344 23L31.8359 22.0156C32.2214 21.8177 32.6641 21.6484 33.1641 21.5078C33.6641 21.3672 34.1901 21.2969 34.7422 21.2969ZM36.4766 25.7812L35.1719 25.8359C34.1042 25.8776 33.3516 26.0521 32.9141 26.3594C32.4766 26.6667 32.2578 27.1016 32.2578 27.6641C32.2578 28.1536 32.4062 28.5156 32.7031 28.75C33 28.9844 33.3932 29.1016 33.8828 29.1016C34.6432 29.1016 35.2656 28.8906 35.75 28.4688C36.2344 28.0469 36.4766 27.4141 36.4766 26.5703V25.7812ZM43.8594 30.1562C43.0885 30.1562 42.4089 29.9974 41.8203 29.6797C41.2318 29.362 40.7734 28.8776 40.4453 28.2266C40.1172 27.5755 39.9531 26.7552 39.9531 25.7656C39.9531 24.7292 40.125 23.8828 40.4688 23.2266C40.8177 22.5651 41.2969 22.0755 41.9062 21.7578C42.5156 21.4401 43.2083 21.2812 43.9844 21.2812C44.4115 21.2812 44.8229 21.3255 45.2188 21.4141C45.6198 21.4974 45.9479 21.6042 46.2031 21.7344L45.8125 22.8203C45.5521 22.7161 45.25 22.6224 44.9062 22.5391C44.5677 22.4557 44.25 22.4141 43.9531 22.4141C43.3594 22.4141 42.8646 22.5417 42.4688 22.7969C42.0781 23.0521 41.7839 23.4271 41.5859 23.9219C41.3932 24.4167 41.2969 25.026 41.2969 25.75C41.2969 26.4427 41.3906 27.0339 41.5781 27.5234C41.7708 28.013 42.0547 28.388 42.4297 28.6484C42.8099 28.9036 43.2839 29.0312 43.8516 29.0312C44.3047 29.0312 44.7135 28.9844 45.0781 28.8906C45.4427 28.7917 45.7734 28.6771 46.0703 28.5469V29.7031C45.7839 29.849 45.4635 29.9609 45.1094 30.0391C44.7604 30.1172 44.3438 30.1562 43.8594 30.1562ZM51.3984 21.2812C52.1276 21.2812 52.7526 21.4427 53.2734 21.7656C53.7943 22.0885 54.1927 22.5417 54.4688 23.125C54.7448 23.7031 54.8828 24.3802 54.8828 25.1562V25.9609H48.9688C48.9844 26.9661 49.2344 27.7318 49.7188 28.2578C50.2031 28.7839 50.8854 29.0469 51.7656 29.0469C52.3073 29.0469 52.7865 28.9974 53.2031 28.8984C53.6198 28.7995 54.0521 28.6536 54.5 28.4609V29.6016C54.0677 29.7943 53.638 29.9349 53.2109 30.0234C52.7891 30.112 52.2891 30.1562 51.7109 30.1562C50.888 30.1562 50.1693 29.9896 49.5547 29.6562C48.9453 29.3177 48.4714 28.8229 48.1328 28.1719C47.7943 27.5208 47.625 26.724 47.625 25.7812C47.625 24.8594 47.7786 24.0625 48.0859 23.3906C48.3984 22.7135 48.8359 22.1927 49.3984 21.8281C49.9661 21.4635 50.6328 21.2812 51.3984 21.2812ZM51.3828 22.3438C50.6901 22.3438 50.138 22.5703 49.7266 23.0234C49.3151 23.4766 49.0703 24.1094 48.9922 24.9219H53.5234C53.5182 24.4115 53.4375 23.9635 53.2812 23.5781C53.1302 23.1875 52.8984 22.8854 52.5859 22.6719C52.2734 22.4531 51.8724 22.3438 51.3828 22.3438ZM58.3828 17.8438V21.4766C58.3828 21.6849 58.3776 21.8958 58.3672 22.1094C58.3568 22.3177 58.3385 22.5104 58.3125 22.6875H58.3984C58.5755 22.3854 58.7995 22.1328 59.0703 21.9297C59.3464 21.7214 59.6589 21.5651 60.0078 21.4609C60.3568 21.3516 60.7266 21.2969 61.1172 21.2969C61.8047 21.2969 62.3776 21.4062 62.8359 21.625C63.2995 21.8438 63.6458 22.1823 63.875 22.6406C64.1094 23.099 64.2266 23.6927 64.2266 24.4219V30H62.9453V24.5078C62.9453 23.7943 62.7812 23.2604 62.4531 22.9062C62.1302 22.5521 61.6328 22.375 60.9609 22.375C60.3255 22.375 59.8177 22.4974 59.4375 22.7422C59.0625 22.9818 58.7917 23.3359 58.625 23.8047C58.4635 24.2734 58.3828 24.8464 58.3828 25.5234V30H57.0859V17.8438H58.3828ZM74.2812 25.7031C74.2812 26.4062 74.1901 27.0339 74.0078 27.5859C73.8255 28.138 73.5625 28.6042 73.2188 28.9844C72.875 29.3646 72.4583 29.6562 71.9688 29.8594C71.4844 30.0573 70.9349 30.1562 70.3203 30.1562C69.7474 30.1562 69.2214 30.0573 68.7422 29.8594C68.2682 29.6562 67.8568 29.3646 67.5078 28.9844C67.1641 28.6042 66.8958 28.138 66.7031 27.5859C66.5156 27.0339 66.4219 26.4062 66.4219 25.7031C66.4219 24.7656 66.5807 23.9688 66.8984 23.3125C67.2161 22.651 67.6693 22.1484 68.2578 21.8047C68.8516 21.4557 69.5573 21.2812 70.375 21.2812C71.1562 21.2812 71.8385 21.4557 72.4219 21.8047C73.0104 22.1536 73.4661 22.6589 73.7891 23.3203C74.1172 23.9766 74.2812 24.7708 74.2812 25.7031ZM67.7656 25.7031C67.7656 26.3906 67.8568 26.987 68.0391 27.4922C68.2214 27.9974 68.5026 28.388 68.8828 28.6641C69.263 28.9401 69.7526 29.0781 70.3516 29.0781C70.9453 29.0781 71.4323 28.9401 71.8125 28.6641C72.1979 28.388 72.4818 27.9974 72.6641 27.4922C72.8464 26.987 72.9375 26.3906 72.9375 25.7031C72.9375 25.0208 72.8464 24.4323 72.6641 23.9375C72.4818 23.4375 72.2005 23.0521 71.8203 22.7812C71.4401 22.5104 70.9479 22.375 70.3438 22.375C69.4531 22.375 68.7995 22.6693 68.3828 23.2578C67.9714 23.8464 67.7656 24.6615 67.7656 25.7031ZM77.8281 30H76.5234V17.8438H77.8281V30ZM83.6172 30.1562C82.5339 30.1562 81.6745 29.7865 81.0391 29.0469C80.4089 28.3073 80.0938 27.2083 80.0938 25.75C80.0938 24.276 80.4167 23.1641 81.0625 22.4141C81.7083 21.6589 82.5677 21.2812 83.6406 21.2812C84.0938 21.2812 84.4896 21.3411 84.8281 21.4609C85.1667 21.5807 85.4583 21.7422 85.7031 21.9453C85.9479 22.1432 86.1536 22.3698 86.3203 22.625H86.4141C86.3932 22.4635 86.3724 22.2422 86.3516 21.9609C86.3307 21.6797 86.3203 21.4505 86.3203 21.2734V17.8438H87.6172V30H86.5703L86.375 28.7812H86.3203C86.1589 29.0365 85.9531 29.2682 85.7031 29.4766C85.4583 29.6849 85.1641 29.8516 84.8203 29.9766C84.4818 30.0964 84.0807 30.1562 83.6172 30.1562ZM83.8203 29.0781C84.737 29.0781 85.3854 28.8177 85.7656 28.2969C86.1458 27.776 86.3359 27.0026 86.3359 25.9766V25.7422C86.3359 24.6536 86.1536 23.8177 85.7891 23.2344C85.4297 22.651 84.7734 22.3594 83.8203 22.3594C83.0234 22.3594 82.4271 22.6667 82.0312 23.2812C81.6354 23.8906 81.4375 24.724 81.4375 25.7812C81.4375 26.8333 81.6328 27.6458 82.0234 28.2188C82.4193 28.7917 83.0182 29.0781 83.8203 29.0781ZM93.6641 21.2812C94.3932 21.2812 95.0182 21.4427 95.5391 21.7656C96.0599 22.0885 96.4583 22.5417 96.7344 23.125C97.0104 23.7031 97.1484 24.3802 97.1484 25.1562V25.9609H91.2344C91.25 26.9661 91.5 27.7318 91.9844 28.2578C92.4688 28.7839 93.151 29.0469 94.0312 29.0469C94.5729 29.0469 95.0521 28.9974 95.4688 28.8984C95.8854 28.7995 96.3177 28.6536 96.7656 28.4609V29.6016C96.3333 29.7943 95.9036 29.9349 95.4766 30.0234C95.0547 30.112 94.5547 30.1562 93.9766 30.1562C93.1536 30.1562 92.4349 29.9896 91.8203 29.6562C91.2109 29.3177 90.737 28.8229 90.3984 28.1719C90.0599 27.5208 89.8906 26.724 89.8906 25.7812C89.8906 24.8594 90.0443 24.0625 90.3516 23.3906C90.6641 22.7135 91.1016 22.1927 91.6641 21.8281C92.2318 21.4635 92.8984 21.2812 93.6641 21.2812ZM93.6484 22.3438C92.9557 22.3438 92.4036 22.5703 91.9922 23.0234C91.5807 23.4766 91.3359 24.1094 91.2578 24.9219H95.7891C95.7839 24.4115 95.7031 23.9635 95.5469 23.5781C95.3958 23.1875 95.1641 22.8854 94.8516 22.6719C94.5391 22.4531 94.138 22.3438 93.6484 22.3438ZM103.242 21.2812C103.414 21.2812 103.594 21.2917 103.781 21.3125C103.969 21.3281 104.135 21.3516 104.281 21.3828L104.117 22.5859C103.977 22.5495 103.82 22.5208 103.648 22.5C103.477 22.4792 103.315 22.4688 103.164 22.4688C102.82 22.4688 102.495 22.5391 102.188 22.6797C101.885 22.8151 101.62 23.013 101.391 23.2734C101.161 23.5286 100.982 23.8385 100.852 24.2031C100.721 24.5625 100.656 24.9635 100.656 25.4062V30H99.3516V21.4375H100.43L100.57 23.0156H100.625C100.802 22.6979 101.016 22.4089 101.266 22.1484C101.516 21.8828 101.805 21.6719 102.133 21.5156C102.466 21.3594 102.836 21.2812 103.242 21.2812Z" fill="#869198"/>
</svg>
