<svg width="366" height="136" viewBox="0 0 366 136" fill="none" xmlns="http://www.w3.org/2000/svg">
<rect x="1" y="0.5" width="364" height="135" rx="7.5" fill="#1C1F21"/>
<rect x="1" y="0.5" width="364" height="135" rx="7.5" stroke="#363B40"/>
<path d="M21.0469 21.5781C22.5208 21.5781 23.5964 21.8672 24.2734 22.4453C24.9557 23.0182 25.2969 23.8411 25.2969 24.9141C25.2969 25.3984 25.2161 25.8594 25.0547 26.2969C24.8984 26.7292 24.6432 27.112 24.2891 27.4453C23.9349 27.7734 23.4688 28.0339 22.8906 28.2266C22.3177 28.4141 21.6146 28.5078 20.7812 28.5078H19.3906V33H18.0625V21.5781H21.0469ZM20.9219 22.7109H19.3906V27.3672H20.6328C21.362 27.3672 21.9688 27.2891 22.4531 27.1328C22.9427 26.9766 23.3099 26.724 23.5547 26.375C23.7995 26.0208 23.9219 25.5521 23.9219 24.9688C23.9219 24.2083 23.6797 23.6432 23.1953 23.2734C22.7109 22.8984 21.9531 22.7109 20.9219 22.7109ZM28.7969 33H27.4922V20.8438H28.7969V33ZM34.7422 24.2969C35.763 24.2969 36.5208 24.526 37.0156 24.9844C37.5104 25.4427 37.7578 26.1745 37.7578 27.1797V33H36.8125L36.5625 31.7344H36.5C36.2604 32.0469 36.0104 32.3099 35.75 32.5234C35.4896 32.7318 35.1875 32.8906 34.8438 33C34.5052 33.1042 34.0885 33.1562 33.5938 33.1562C33.0729 33.1562 32.6094 33.0651 32.2031 32.8828C31.8021 32.7005 31.4844 32.4245 31.25 32.0547C31.0208 31.6849 30.9062 31.2161 30.9062 30.6484C30.9062 29.7943 31.2448 29.138 31.9219 28.6797C32.599 28.2214 33.6302 27.9714 35.0156 27.9297L36.4922 27.8672V27.3438C36.4922 26.6042 36.3333 26.0859 36.0156 25.7891C35.6979 25.4922 35.25 25.3438 34.6719 25.3438C34.224 25.3438 33.7969 25.4089 33.3906 25.5391C32.9844 25.6693 32.599 25.8229 32.2344 26L31.8359 25.0156C32.2214 24.8177 32.6641 24.6484 33.1641 24.5078C33.6641 24.3672 34.1901 24.2969 34.7422 24.2969ZM36.4766 28.7812L35.1719 28.8359C34.1042 28.8776 33.3516 29.0521 32.9141 29.3594C32.4766 29.6667 32.2578 30.1016 32.2578 30.6641C32.2578 31.1536 32.4062 31.5156 32.7031 31.75C33 31.9844 33.3932 32.1016 33.8828 32.1016C34.6432 32.1016 35.2656 31.8906 35.75 31.4688C36.2344 31.0469 36.4766 30.4141 36.4766 29.5703V28.7812ZM43.8594 33.1562C43.0885 33.1562 42.4089 32.9974 41.8203 32.6797C41.2318 32.362 40.7734 31.8776 40.4453 31.2266C40.1172 30.5755 39.9531 29.7552 39.9531 28.7656C39.9531 27.7292 40.125 26.8828 40.4688 26.2266C40.8177 25.5651 41.2969 25.0755 41.9062 24.7578C42.5156 24.4401 43.2083 24.2812 43.9844 24.2812C44.4115 24.2812 44.8229 24.3255 45.2188 24.4141C45.6198 24.4974 45.9479 24.6042 46.2031 24.7344L45.8125 25.8203C45.5521 25.7161 45.25 25.6224 44.9062 25.5391C44.5677 25.4557 44.25 25.4141 43.9531 25.4141C43.3594 25.4141 42.8646 25.5417 42.4688 25.7969C42.0781 26.0521 41.7839 26.4271 41.5859 26.9219C41.3932 27.4167 41.2969 28.026 41.2969 28.75C41.2969 29.4427 41.3906 30.0339 41.5781 30.5234C41.7708 31.013 42.0547 31.388 42.4297 31.6484C42.8099 31.9036 43.2839 32.0312 43.8516 32.0312C44.3047 32.0312 44.7135 31.9844 45.0781 31.8906C45.4427 31.7917 45.7734 31.6771 46.0703 31.5469V32.7031C45.7839 32.849 45.4635 32.9609 45.1094 33.0391C44.7604 33.1172 44.3438 33.1562 43.8594 33.1562ZM51.3984 24.2812C52.1276 24.2812 52.7526 24.4427 53.2734 24.7656C53.7943 25.0885 54.1927 25.5417 54.4688 26.125C54.7448 26.7031 54.8828 27.3802 54.8828 28.1562V28.9609H48.9688C48.9844 29.9661 49.2344 30.7318 49.7188 31.2578C50.2031 31.7839 50.8854 32.0469 51.7656 32.0469C52.3073 32.0469 52.7865 31.9974 53.2031 31.8984C53.6198 31.7995 54.0521 31.6536 54.5 31.4609V32.6016C54.0677 32.7943 53.638 32.9349 53.2109 33.0234C52.7891 33.112 52.2891 33.1562 51.7109 33.1562C50.888 33.1562 50.1693 32.9896 49.5547 32.6562C48.9453 32.3177 48.4714 31.8229 48.1328 31.1719C47.7943 30.5208 47.625 29.724 47.625 28.7812C47.625 27.8594 47.7786 27.0625 48.0859 26.3906C48.3984 25.7135 48.8359 25.1927 49.3984 24.8281C49.9661 24.4635 50.6328 24.2812 51.3984 24.2812ZM51.3828 25.3438C50.6901 25.3438 50.138 25.5703 49.7266 26.0234C49.3151 26.4766 49.0703 27.1094 48.9922 27.9219H53.5234C53.5182 27.4115 53.4375 26.9635 53.2812 26.5781C53.1302 26.1875 52.8984 25.8854 52.5859 25.6719C52.2734 25.4531 51.8724 25.3438 51.3828 25.3438ZM58.3828 20.8438V24.4766C58.3828 24.6849 58.3776 24.8958 58.3672 25.1094C58.3568 25.3177 58.3385 25.5104 58.3125 25.6875H58.3984C58.5755 25.3854 58.7995 25.1328 59.0703 24.9297C59.3464 24.7214 59.6589 24.5651 60.0078 24.4609C60.3568 24.3516 60.7266 24.2969 61.1172 24.2969C61.8047 24.2969 62.3776 24.4062 62.8359 24.625C63.2995 24.8438 63.6458 25.1823 63.875 25.6406C64.1094 26.099 64.2266 26.6927 64.2266 27.4219V33H62.9453V27.5078C62.9453 26.7943 62.7812 26.2604 62.4531 25.9062C62.1302 25.5521 61.6328 25.375 60.9609 25.375C60.3255 25.375 59.8177 25.4974 59.4375 25.7422C59.0625 25.9818 58.7917 26.3359 58.625 26.8047C58.4635 27.2734 58.3828 27.8464 58.3828 28.5234V33H57.0859V20.8438H58.3828ZM74.2812 28.7031C74.2812 29.4062 74.1901 30.0339 74.0078 30.5859C73.8255 31.138 73.5625 31.6042 73.2188 31.9844C72.875 32.3646 72.4583 32.6562 71.9688 32.8594C71.4844 33.0573 70.9349 33.1562 70.3203 33.1562C69.7474 33.1562 69.2214 33.0573 68.7422 32.8594C68.2682 32.6562 67.8568 32.3646 67.5078 31.9844C67.1641 31.6042 66.8958 31.138 66.7031 30.5859C66.5156 30.0339 66.4219 29.4062 66.4219 28.7031C66.4219 27.7656 66.5807 26.9688 66.8984 26.3125C67.2161 25.651 67.6693 25.1484 68.2578 24.8047C68.8516 24.4557 69.5573 24.2812 70.375 24.2812C71.1562 24.2812 71.8385 24.4557 72.4219 24.8047C73.0104 25.1536 73.4661 25.6589 73.7891 26.3203C74.1172 26.9766 74.2812 27.7708 74.2812 28.7031ZM67.7656 28.7031C67.7656 29.3906 67.8568 29.987 68.0391 30.4922C68.2214 30.9974 68.5026 31.388 68.8828 31.6641C69.263 31.9401 69.7526 32.0781 70.3516 32.0781C70.9453 32.0781 71.4323 31.9401 71.8125 31.6641C72.1979 31.388 72.4818 30.9974 72.6641 30.4922C72.8464 29.987 72.9375 29.3906 72.9375 28.7031C72.9375 28.0208 72.8464 27.4323 72.6641 26.9375C72.4818 26.4375 72.2005 26.0521 71.8203 25.7812C71.4401 25.5104 70.9479 25.375 70.3438 25.375C69.4531 25.375 68.7995 25.6693 68.3828 26.2578C67.9714 26.8464 67.7656 27.6615 67.7656 28.7031ZM77.8281 33H76.5234V20.8438H77.8281V33ZM83.6172 33.1562C82.5339 33.1562 81.6745 32.7865 81.0391 32.0469C80.4089 31.3073 80.0938 30.2083 80.0938 28.75C80.0938 27.276 80.4167 26.1641 81.0625 25.4141C81.7083 24.6589 82.5677 24.2812 83.6406 24.2812C84.0938 24.2812 84.4896 24.3411 84.8281 24.4609C85.1667 24.5807 85.4583 24.7422 85.7031 24.9453C85.9479 25.1432 86.1536 25.3698 86.3203 25.625H86.4141C86.3932 25.4635 86.3724 25.2422 86.3516 24.9609C86.3307 24.6797 86.3203 24.4505 86.3203 24.2734V20.8438H87.6172V33H86.5703L86.375 31.7812H86.3203C86.1589 32.0365 85.9531 32.2682 85.7031 32.4766C85.4583 32.6849 85.1641 32.8516 84.8203 32.9766C84.4818 33.0964 84.0807 33.1562 83.6172 33.1562ZM83.8203 32.0781C84.737 32.0781 85.3854 31.8177 85.7656 31.2969C86.1458 30.776 86.3359 30.0026 86.3359 28.9766V28.7422C86.3359 27.6536 86.1536 26.8177 85.7891 26.2344C85.4297 25.651 84.7734 25.3594 83.8203 25.3594C83.0234 25.3594 82.4271 25.6667 82.0312 26.2812C81.6354 26.8906 81.4375 27.724 81.4375 28.7812C81.4375 29.8333 81.6328 30.6458 82.0234 31.2188C82.4193 31.7917 83.0182 32.0781 83.8203 32.0781ZM93.6641 24.2812C94.3932 24.2812 95.0182 24.4427 95.5391 24.7656C96.0599 25.0885 96.4583 25.5417 96.7344 26.125C97.0104 26.7031 97.1484 27.3802 97.1484 28.1562V28.9609H91.2344C91.25 29.9661 91.5 30.7318 91.9844 31.2578C92.4688 31.7839 93.151 32.0469 94.0312 32.0469C94.5729 32.0469 95.0521 31.9974 95.4688 31.8984C95.8854 31.7995 96.3177 31.6536 96.7656 31.4609V32.6016C96.3333 32.7943 95.9036 32.9349 95.4766 33.0234C95.0547 33.112 94.5547 33.1562 93.9766 33.1562C93.1536 33.1562 92.4349 32.9896 91.8203 32.6562C91.2109 32.3177 90.737 31.8229 90.3984 31.1719C90.0599 30.5208 89.8906 29.724 89.8906 28.7812C89.8906 27.8594 90.0443 27.0625 90.3516 26.3906C90.6641 25.7135 91.1016 25.1927 91.6641 24.8281C92.2318 24.4635 92.8984 24.2812 93.6641 24.2812ZM93.6484 25.3438C92.9557 25.3438 92.4036 25.5703 91.9922 26.0234C91.5807 26.4766 91.3359 27.1094 91.2578 27.9219H95.7891C95.7839 27.4115 95.7031 26.9635 95.5469 26.5781C95.3958 26.1875 95.1641 25.8854 94.8516 25.6719C94.5391 25.4531 94.138 25.3438 93.6484 25.3438ZM103.242 24.2812C103.414 24.2812 103.594 24.2917 103.781 24.3125C103.969 24.3281 104.135 24.3516 104.281 24.3828L104.117 25.5859C103.977 25.5495 103.82 25.5208 103.648 25.5C103.477 25.4792 103.315 25.4688 103.164 25.4688C102.82 25.4688 102.495 25.5391 102.188 25.6797C101.885 25.8151 101.62 26.013 101.391 26.2734C101.161 26.5286 100.982 26.8385 100.852 27.2031C100.721 27.5625 100.656 27.9635 100.656 28.4062V33H99.3516V24.4375H100.43L100.57 26.0156H100.625C100.802 25.6979 101.016 25.4089 101.266 25.1484C101.516 24.8828 101.805 24.6719 102.133 24.5156C102.466 24.3594 102.836 24.2812 103.242 24.2812Z" fill="#869198"/>
</svg>
