<svg width="366" height="136" viewBox="0 0 366 136" fill="none" xmlns="http://www.w3.org/2000/svg">
<rect x="0.5" y="0.5" width="365" height="135" rx="7.5" fill="#1C1F21"/>
<rect x="0.5" y="0.5" width="365" height="135" rx="7.5" stroke="#FF5959"/>
<path d="M21.0703 33H19.7344V22.75H16.1406V21.5781H24.6484V22.75H21.0703V33ZM29.4766 24.2812C30.2057 24.2812 30.8307 24.4427 31.3516 24.7656C31.8724 25.0885 32.2708 25.5417 32.5469 26.125C32.8229 26.7031 32.9609 27.3802 32.9609 28.1562V28.9609H27.0469C27.0625 29.9661 27.3125 30.7318 27.7969 31.2578C28.2812 31.7839 28.9635 32.0469 29.8438 32.0469C30.3854 32.0469 30.8646 31.9974 31.2812 31.8984C31.6979 31.7995 32.1302 31.6536 32.5781 31.4609V32.6016C32.1458 32.7943 31.7161 32.9349 31.2891 33.0234C30.8672 33.112 30.3672 33.1562 29.7891 33.1562C28.9661 33.1562 28.2474 32.9896 27.6328 32.6562C27.0234 32.3177 26.5495 31.8229 26.2109 31.1719C25.8724 30.5208 25.7031 29.724 25.7031 28.7812C25.7031 27.8594 25.8568 27.0625 26.1641 26.3906C26.4766 25.7135 26.9141 25.1927 27.4766 24.8281C28.0443 24.4635 28.7109 24.2812 29.4766 24.2812ZM29.4609 25.3438C28.7682 25.3438 28.2161 25.5703 27.8047 26.0234C27.3932 26.4766 27.1484 27.1094 27.0703 27.9219H31.6016C31.5964 27.4115 31.5156 26.9635 31.3594 26.5781C31.2083 26.1875 30.9766 25.8854 30.6641 25.6719C30.3516 25.4531 29.9505 25.3438 29.4609 25.3438ZM37.2031 28.6172L34.2422 24.4375H35.7266L37.9844 27.7344L40.2344 24.4375H41.7031L38.7422 28.6172L41.8672 33H40.3828L37.9844 29.5078L35.5703 33H34.1016L37.2031 28.6172ZM46.3047 32.0938C46.5182 32.0938 46.737 32.0755 46.9609 32.0391C47.1849 32.0026 47.3672 31.9583 47.5078 31.9062V32.9141C47.3568 32.9818 47.1458 33.0391 46.875 33.0859C46.6094 33.1328 46.349 33.1562 46.0938 33.1562C45.6406 33.1562 45.2292 33.0781 44.8594 32.9219C44.4896 32.7604 44.1927 32.4896 43.9688 32.1094C43.75 31.7292 43.6406 31.2031 43.6406 30.5312V25.4531H42.4219V24.8203L43.6484 24.3125L44.1641 22.4531H44.9453V24.4375H47.4531V25.4531H44.9453V30.4922C44.9453 31.0286 45.0677 31.4297 45.3125 31.6953C45.5625 31.9609 45.8932 32.0938 46.3047 32.0938Z" fill="#F9F9F9"/>
</svg>
