<svg width="366" height="136" viewBox="0 0 366 136" fill="none" xmlns="http://www.w3.org/2000/svg">
<rect x="1" y="0.5" width="364" height="135" rx="7.5" fill="#1C1F21"/>
<rect x="1" y="0.5" width="364" height="135" rx="7.5" stroke="#59B2FF"/>
<path d="M21.5703 33H20.2344V22.75H16.6406V21.5781H25.1484V22.75H21.5703V33ZM29.9766 24.2812C30.7057 24.2812 31.3307 24.4427 31.8516 24.7656C32.3724 25.0885 32.7708 25.5417 33.0469 26.125C33.3229 26.7031 33.4609 27.3802 33.4609 28.1562V28.9609H27.5469C27.5625 29.9661 27.8125 30.7318 28.2969 31.2578C28.7812 31.7839 29.4635 32.0469 30.3438 32.0469C30.8854 32.0469 31.3646 31.9974 31.7812 31.8984C32.1979 31.7995 32.6302 31.6536 33.0781 31.4609V32.6016C32.6458 32.7943 32.2161 32.9349 31.7891 33.0234C31.3672 33.112 30.8672 33.1562 30.2891 33.1562C29.4661 33.1562 28.7474 32.9896 28.1328 32.6562C27.5234 32.3177 27.0495 31.8229 26.7109 31.1719C26.3724 30.5208 26.2031 29.724 26.2031 28.7812C26.2031 27.8594 26.3568 27.0625 26.6641 26.3906C26.9766 25.7135 27.4141 25.1927 27.9766 24.8281C28.5443 24.4635 29.2109 24.2812 29.9766 24.2812ZM29.9609 25.3438C29.2682 25.3438 28.7161 25.5703 28.3047 26.0234C27.8932 26.4766 27.6484 27.1094 27.5703 27.9219H32.1016C32.0964 27.4115 32.0156 26.9635 31.8594 26.5781C31.7083 26.1875 31.4766 25.8854 31.1641 25.6719C30.8516 25.4531 30.4505 25.3438 29.9609 25.3438ZM37.7031 28.6172L34.7422 24.4375H36.2266L38.4844 27.7344L40.7344 24.4375H42.2031L39.2422 28.6172L42.3672 33H40.8828L38.4844 29.5078L36.0703 33H34.6016L37.7031 28.6172ZM46.8047 32.0938C47.0182 32.0938 47.237 32.0755 47.4609 32.0391C47.6849 32.0026 47.8672 31.9583 48.0078 31.9062V32.9141C47.8568 32.9818 47.6458 33.0391 47.375 33.0859C47.1094 33.1328 46.849 33.1562 46.5938 33.1562C46.1406 33.1562 45.7292 33.0781 45.3594 32.9219C44.9896 32.7604 44.6927 32.4896 44.4688 32.1094C44.25 31.7292 44.1406 31.2031 44.1406 30.5312V25.4531H42.9219V24.8203L44.1484 24.3125L44.6641 22.4531H45.4453V24.4375H47.9531V25.4531H45.4453V30.4922C45.4453 31.0286 45.5677 31.4297 45.8125 31.6953C46.0625 31.9609 46.3932 32.0938 46.8047 32.0938Z" fill="#F9F9F9"/>
</svg>
